<?xml version="1.0" encoding="utf-8"?>
<!-- Generator: Adobe Illustrator 19.0.0, SVG Export Plug-In . SVG Version: 6.00 Build 0)  -->
<svg version="1.1" id="Layer_1" xmlns="http://www.w3.org/2000/svg" xmlns:xlink="http://www.w3.org/1999/xlink" x="0px" y="0px"
	 viewBox="0 0 514.5 156" style="enable-background:new 0 0 514.5 156;" xml:space="preserve">
<style type="text/css">
	.st0{fill:#00AEEF;}
	.st1{fill:#2E383E;}
</style>
<g id="XMLID_1_">
	<g id="XMLID_2_">
		<polygon id="XMLID_21_" class="st0" points="67.6,21.3 60.8,17.4 60.8,56.6 67.6,60.5 		"/>
		<polygon id="XMLID_20_" class="st0" points="33.7,6.3 3.7,23.6 33.7,40.9 		"/>
		<polygon id="XMLID_19_" class="st0" points="50.6,11.5 43.9,7.6 43.9,46.8 50.6,50.7 		"/>
		<polygon id="XMLID_18_" class="st0" points="151.7,42.1 151.7,35.2 83.5,74.4 83.5,62.7 151.6,23.5 117.8,4 77.7,27.2 77.7,111.6 
			77.7,111.6 77.7,151.8 151.7,109.1 151.7,72.4 83.5,111.6 83.5,99.9 151.7,60.7 151.7,53.8 83.5,93 83.5,81.3 		"/>
		<polygon id="XMLID_17_" class="st0" points="67.6,105.8 67.6,60.5 60.8,56.6 60.8,101.9 50.6,96 50.6,50.7 43.9,46.8 43.9,92.1 
			33.7,86.2 33.7,40.9 3.7,23.6 3.7,23.6 3.7,109.1 77.7,151.8 77.7,151.8 77.7,111.6 		"/>
	</g>
	<g id="XMLID_3_">
		<path id="XMLID_4_" class="st0" d="M325.3,142.7v-23.9h4.8v23.9H325.3z"/>
		<path id="XMLID_5_" class="st0" d="M334.8,142.7v-23.9h4.7l9.8,16v-16h4.5v23.9H349l-9.7-15.7v15.7H334.8z"/>
		<path id="XMLID_6_" class="st0" d="M364.3,142.7v-19.9h-7.1v-4.1h19v4.1h-7.1v19.9H364.3z"/>
		<path id="XMLID_7_" class="st0" d="M379.3,142.7v-23.9H397v4.1h-12.9v5.3h12v4.1h-12v6.5h13.3v4.1H379.3z"/>
		<path id="XMLID_8_" class="st0" d="M401.6,142.7v-23.9h10.2c2.6,0,4.4,0.2,5.6,0.6c1.2,0.4,2.1,1.2,2.8,2.3c0.7,1.1,1,2.3,1,3.8
			c0,1.8-0.5,3.3-1.6,4.4c-1.1,1.2-2.6,1.9-4.7,2.2c1,0.6,1.9,1.3,2.6,2c0.7,0.7,1.6,2,2.7,3.9l2.9,4.7h-5.8l-3.5-5.2
			c-1.2-1.9-2.1-3-2.5-3.5c-0.5-0.5-0.9-0.8-1.5-1c-0.5-0.2-1.3-0.3-2.4-0.3h-1v10H401.6z M406.4,128.9h3.6c2.3,0,3.8-0.1,4.3-0.3
			c0.6-0.2,1-0.5,1.4-1c0.3-0.5,0.5-1.1,0.5-1.8c0-0.8-0.2-1.5-0.6-1.9c-0.4-0.5-1-0.8-1.8-0.9c-0.4-0.1-1.6-0.1-3.5-0.1h-3.8V128.9
			z"/>
		<path id="XMLID_9_" class="st0" d="M425.8,142.7v-23.9h4.7l9.8,16v-16h4.5v23.9h-4.8l-9.7-15.7v15.7H425.8z"/>
		<path id="XMLID_22_" class="st0" d="M449.8,142.7v-23.9h17.7v4.1h-12.9v5.3h12v4.1h-12v6.5H468v4.1H449.8z"/>
		<path id="XMLID_24_" class="st0" d="M477.5,142.7v-19.9h-7.1v-4.1h19v4.1h-7.1v19.9H477.5z"/>
	</g>
	<path class="st1" d="M242,107.3h15.6V34.4H242V107.3z M336.2,54c-0.3-1.6-0.7-3.1-1.3-4.6c-0.6-1.5-1.4-3-2.4-4.4
		c-1.6-2.2-3.5-4-5.6-5.4c-2.1-1.4-4.4-2.5-6.7-3.2c-2.4-0.8-4.9-1.3-7.4-1.6c-2.6-0.3-5.2-0.4-7.7-0.4c-2.6,0-5.2,0.2-8,0.5
		c-2.8,0.4-5.5,1-8.1,2c-2.6,0.9-5,2.2-7.1,3.9c-2.1,1.6-3.9,3.7-5.2,6.2c-0.7,1.2-1.2,2.6-1.6,4.1c-0.4,1.5-0.8,3-1,4.6
		c-0.3,1.6-0.4,3.2-0.5,4.8c-0.1,1.6-0.2,3-0.2,4.4v43h15.6V64.1c0-1.2,0-2.5,0.1-3.8c0-1.3,0.2-2.6,0.4-3.8
		c0.3-1.2,0.7-2.4,1.2-3.6c0.5-1.1,1.4-2.1,2.5-2.9c1.6-1.2,3.5-2,5.7-2.6c2.2-0.5,4.3-0.8,6.2-0.8c1.4,0,2.8,0.1,4.3,0.4
		c1.5,0.3,2.9,0.7,4.2,1.3c1.4,0.6,2.6,1.4,3.7,2.3c1.1,0.9,2,2,2.7,3.3c0.8,1.6,1.3,3.3,1.5,5c0.2,1.7,0.3,3.4,0.3,5.2v43.7h15.4
		V63.8c0-1.7,0-3.3-0.1-5C336.7,57.2,336.5,55.6,336.2,54z M198.3,34.4h-15.6v72.9h0.1v0.3h45.1V92h-29.6V34.4z M398.3,78.1
		c0,1.2,0,2.5-0.1,3.8c0,1.3-0.2,2.6-0.4,3.8c-0.3,1.2-0.7,2.4-1.2,3.6c-0.5,1.1-1.4,2.1-2.5,2.9c-1.6,1.2-3.5,2-5.7,2.6
		c-2.2,0.5-4.3,0.8-6.2,0.8c-1.4,0-2.8-0.1-4.3-0.4c-1.5-0.3-2.9-0.7-4.2-1.3c-1.4-0.6-2.6-1.4-3.7-2.3c-1.1-0.9-2-2-2.7-3.3
		c-0.8-1.6-1.3-3.3-1.5-5c-0.2-1.7-0.3-3.4-0.3-5.2V34.4h-15.4v44.1c0,1.7,0,3.3,0.1,5c0.1,1.6,0.3,3.2,0.5,4.8
		c0.3,1.6,0.7,3.1,1.3,4.6c0.6,1.5,1.4,3,2.4,4.4c1.6,2.2,3.5,4,5.6,5.4c2.1,1.4,4.4,2.5,6.7,3.2c2.4,0.8,4.8,1.3,7.4,1.6
		c2.6,0.3,5.2,0.4,7.7,0.4c2.6,0,5.2-0.2,8-0.5c2.8-0.4,5.5-1,8.1-2c2.6-0.9,5-2.2,7.1-3.9c2.1-1.6,3.9-3.7,5.2-6.2
		c0.7-1.2,1.2-2.6,1.6-4.1c0.4-1.5,0.8-3,1-4.6c0.3-1.6,0.4-3.2,0.5-4.8c0.1-1.6,0.2-3,0.2-4.4v-43h-15.6V78.1z M470.7,34.4
		l-15.5,24.1l-14.3-24.1h-19l23.9,36.1l-24.8,36.8h18.5l15.7-25l16.1,25h18.3l-24.7-36.8l24.7-36.1H470.7z M510.9,26.5h-2.2
		l-1.4,3.9c-0.2,0.6-0.3,1.2-0.5,2h0c-0.2-0.8-0.4-1.4-0.5-2l-1.4-3.8h-2.3l-0.6,7.8h1.5l0.3-4.6c0-0.7,0.1-1.5,0.1-2.2h0.1
		c0.2,0.7,0.4,1.6,0.5,2.2l1.4,4.5h1.6l1.4-4.3c0.2-0.7,0.5-1.6,0.7-2.3h0.1c0,0.8,0,1.6,0.1,2.2l0.3,4.6h1.6L510.9,26.5z
		 M494.9,27.8h2.5v6.5h1.6v-6.5h2.5v-1.3h-6.6V27.8z"/>
</g>
</svg>
