<?xml version="1.0" encoding="utf-8"?>
<!-- Generator: Adobe Illustrator 19.0.0, SVG Export Plug-In . SVG Version: 6.00 Build 0)  -->
<svg version="1.1" id="Layer_1" xmlns="http://www.w3.org/2000/svg" xmlns:xlink="http://www.w3.org/1999/xlink" x="0px" y="0px"
	 viewBox="108 131.5 514.5 156" style="enable-background:new 108 131.5 514.5 156;" xml:space="preserve">
<style type="text/css">
	.st0{fill:#00AEEF;}
</style>
<g id="XMLID_1_">
	<g id="XMLID_2_">
		<polygon id="XMLID_21_" class="st0" points="175.6,152.8 168.8,148.9 168.8,188.1 175.6,192 		"/>
		<polygon id="XMLID_20_" class="st0" points="141.7,137.8 111.7,155.1 141.7,172.4 		"/>
		<polygon id="XMLID_19_" class="st0" points="158.6,143 151.9,139.1 151.9,178.3 158.6,182.2 		"/>
		<polygon id="XMLID_18_" class="st0" points="259.7,173.6 259.7,166.7 191.5,205.9 191.5,194.2 259.6,155 225.8,135.5 185.7,158.7 
			185.7,243.1 185.7,243.1 185.7,283.3 259.7,240.6 259.7,203.9 191.5,243.1 191.5,231.4 259.7,192.2 259.7,185.3 191.5,224.5 
			191.5,212.8 		"/>
		<polygon id="XMLID_17_" class="st0" points="175.6,237.3 175.6,192 168.8,188.1 168.8,233.4 158.6,227.5 158.6,182.2 151.9,178.3 
			151.9,223.6 141.7,217.7 141.7,172.4 111.7,155.1 111.7,155.1 111.7,240.6 185.7,283.3 185.7,283.3 185.7,243.1 		"/>
	</g>
</g>
</svg>
